<svg xmlns="http://www.w3.org/2000/svg" width="100" height="84" viewBox="0 0 116 97"><defs><radialGradient id="bz" cx="30%" cy="20%" r="80%"><stop offset="0" stop-color="#9a958e"/><stop offset="0.55" stop-color="#615c56"/><stop offset="1" stop-color="#26231f"/></radialGradient><radialGradient id="cap" cx="50%" cy="35%" r="75%"><stop offset="0" stop-color="#ff8a8a"/><stop offset="0.45" stop-color="#ee2222"/><stop offset="1" stop-color="#8c0000"/></radialGradient><filter id="sg" x="-60%" y="-60%" width="220%" height="220%"><feGaussianBlur stdDeviation="2.2" result="b"/><feMerge><feMergeNode in="b"/><feMergeNode in="SourceGraphic"/></feMerge></filter><filter id="bg" x="-100%" y="-100%" width="300%" height="300%"><feGaussianBlur stdDeviation="8"/></filter></defs><rect x="2" y="2" width="112" height="93" rx="5" fill="url(#bz)" stroke="#100f0d" stroke-width="1"/><rect x="6" y="6" width="104" height="85" rx="3" fill="none" stroke="#c9c5be" stroke-width="0.6" opacity="0.35"/><rect x="9" y="9" width="98" height="79" rx="3" fill="#141210" stroke="#000000" stroke-width="1"/><rect x="9" y="9" width="98" height="8" rx="2" fill="#000000" opacity="0.45"/><rect x="12" y="13" width="92" height="70" rx="6" fill="url(#cap)" opacity="0.55" filter="url(#bg)"/><rect x="14" y="15" width="88" height="66" rx="4" fill="url(#cap)" stroke="#ff6f6f" stroke-width="1.4" filter="url(#sg)"/><rect x="17" y="18" width="82" height="14" rx="2" fill="#ffffff" opacity="0.18"/><g transform="translate(0,-10)"><g transform="translate(20.5,0.3) scale(0.75)"><path d="M54.08,66.76s12.71,3,12.29,4.28S66,73,57.53,71,41,68.24,38.34,69.5c0,0-1.24-4.53-3.73-5.22s-4.83,0-5.52,1.38.28,4.83,2.35,5.93a57.86,57.86,0,0,0-4.84,5.8c-1.79,2.63-6.21,7-14.63,8.15s-7.46,7.73-.69,5.25,17.53-6.49,27.34-6.08,21.26,4.56,30.93.14c4.83,3.73,9.41,6.61,11.89,7s13.65,0,13.65,0,.82-2.12-3.73-2.6c-1.13-.12-9-1.25-9-1.25S74.52,83.88,74,82.36s.41-3.72.41-3.72,9.52,1.1,11.6,1a4.07,4.07,0,0,0,3.2-1.84l.1-.15c.67-1-2.92-8.11-6.48-9.37-3.35-1.19-4.8-2-6.76-1.38-1,.3-2.63,1.24-3.73,1.24S66.1,63.72,61.4,63.45,44.14,66.21,54.08,66.76Z" fill="#4a0008"/><circle cx="79.41" cy="71.04" r="1.41" fill="#ffffff" opacity="0.85"/></g></g></svg>
