<svg xmlns="http://www.w3.org/2000/svg" width="100" height="167" viewBox="0 0 116 194"><defs><radialGradient id="bz" cx="34.8" cy="38.8" r="92.8" gradientUnits="userSpaceOnUse"><stop offset="0" stop-color="#9a958e"/><stop offset="0.55" stop-color="#615c56"/><stop offset="1" stop-color="#26231f"/></radialGradient><radialGradient id="base" cx="48.0" cy="106.0" r="57.6" gradientUnits="userSpaceOnUse"><stop offset="0" stop-color="#b8b4ae"/><stop offset="0.6" stop-color="#8a867f"/><stop offset="1" stop-color="#4a4740"/></radialGradient></defs><rect x="2" y="2" width="112" height="190" rx="5" fill="url(#bz)" stroke="#100f0d" stroke-width="1"/><rect x="6" y="6" width="104" height="182" rx="3" fill="none" stroke="#c9c5be" stroke-width="0.6" opacity="0.35"/><rect x="9" y="9" width="98" height="176" rx="3" fill="#141210" stroke="#000000" stroke-width="1"/><rect x="9" y="9" width="98" height="8" rx="2" fill="#000000" opacity="0.45"/><text x="37.2" y="34" font-size="14" font-weight="700" letter-spacing="0.4" fill="#b0a898" font-family="Arial, sans-serif">GEAR</text><line x1="32.3" y1="87.4" x2="27.1" y2="81.2" stroke="#e3ac5c" stroke-width="2"/><text x="13.8" y="62" font-size="11" font-weight="700" letter-spacing="0.4" fill="#e3ac5c" font-family="Arial, sans-serif">LOW</text><line x1="83.7" y1="87.4" x2="88.9" y2="81.2" stroke="#6a645c" stroke-width="2"/><text x="74.7" y="62" font-size="11" font-weight="700" letter-spacing="0.4" fill="#6a645c" font-family="Arial, sans-serif">HIGH</text><circle cx="58.0" cy="118.0" r="36.0" fill="url(#base)" stroke="#100f0d" stroke-width="2"/><circle cx="58.0" cy="118.0" r="33.0" fill="none" stroke="#c9c5be" stroke-width="0.8" opacity="0.3"/><g transform="matrix(0.7660 -0.6428 0.6428 0.7660 -62.28 64.89)"><rect x="49.0" y="64.0" width="18" height="74" rx="8" fill="#3a76d4" stroke="#142c5c" stroke-width="1.5"/><rect x="53.0" y="70.0" width="8" height="34" rx="4" fill="#ffffff" opacity="0.18"/><circle cx="58.0" cy="118.0" r="4" fill="#1c1c1c"/></g></svg>
