<svg xmlns="http://www.w3.org/2000/svg" width="252" height="233" viewBox="0 0 252 233"><rect x="0" y="0" width="252" height="233" fill="#141210"/><defs><radialGradient id="bz" cx="75.6" cy="46.6" r="201.6" gradientUnits="userSpaceOnUse"><stop offset="0" stop-color="#9a958e"/><stop offset="0.55" stop-color="#615c56"/><stop offset="1" stop-color="#26231f"/></radialGradient><radialGradient id="base" cx="110.0" cy="128.0" r="92.8" gradientUnits="userSpaceOnUse"><stop offset="0" stop-color="#b8b4ae"/><stop offset="0.6" stop-color="#8a867f"/><stop offset="1" stop-color="#4a4740"/></radialGradient></defs><rect x="4" y="4" width="244" height="225" rx="8" fill="url(#bz)" stroke="#100f0d" stroke-width="1.5"/><rect x="10" y="10" width="232" height="213" rx="5" fill="none" stroke="#c9c5be" stroke-width="0.8" opacity="0.35"/><rect x="15" y="15" width="222" height="203" rx="5" fill="#141210" stroke="#000000" stroke-width="1.5"/><text x="76.8" y="42" font-size="16" font-weight="700" letter-spacing="0.4" fill="#b0a898" font-family="Arial, sans-serif">CLNT MODE</text><line x1="84.9" y1="99.0" x2="78.4" y2="91.3" stroke="#6a645c" stroke-width="3"/><text x="53.1" y="83.65226677800585" font-size="14" font-weight="700" letter-spacing="0.4" fill="#6a645c" font-family="Arial, sans-serif">MAN</text><line x1="167.1" y1="99.0" x2="173.6" y2="91.3" stroke="#e3ac5c" stroke-width="3"/><text x="162.1" y="83.65226677800585" font-size="14" font-weight="700" letter-spacing="0.4" fill="#e3ac5c" font-family="Arial, sans-serif">AUTO</text><circle cx="126.0" cy="148.0" r="58.0" fill="url(#base)" stroke="#100f0d" stroke-width="2"/><circle cx="126.0" cy="148.0" r="53.0" fill="none" stroke="#c9c5be" stroke-width="1" opacity="0.3"/><g transform="matrix(0.7660 0.6428 -0.6428 0.7660 124.61 -46.37)"><rect x="113.0" y="64.0" width="26" height="116" rx="12" fill="#3a76d4" stroke="#142c5c" stroke-width="2"/><rect x="120.0" y="72.0" width="10" height="54" rx="5" fill="#ffffff" opacity="0.18"/><circle cx="126.0" cy="148.0" r="5" fill="#1c1c1c"/></g></svg>
